<?xml version="1.0" encoding="utf-8" standalone="no"?>
<!DOCTYPE svg PUBLIC "-//W3C//DTD SVG 1.1//EN"
  "http://www.w3.org/Graphics/SVG/1.1/DTD/svg11.dtd">
<!-- Created with matplotlib (https://matplotlib.org/) -->
<svg height="345.6pt" version="1.1" viewBox="0 0 460.8 345.6" width="460.8pt" xmlns="http://www.w3.org/2000/svg" xmlns:xlink="http://www.w3.org/1999/xlink">
 <metadata>
  <rdf:RDF xmlns:cc="http://creativecommons.org/ns#" xmlns:dc="http://purl.org/dc/elements/1.1/" xmlns:rdf="http://www.w3.org/1999/02/22-rdf-syntax-ns#">
   <cc:Work>
    <dc:type rdf:resource="http://purl.org/dc/dcmitype/StillImage"/>
    <dc:date>2021-02-25T15:54:13.818066</dc:date>
    <dc:format>image/svg+xml</dc:format>
    <dc:creator>
     <cc:Agent>
      <dc:title>Matplotlib v3.3.4, https://matplotlib.org/</dc:title>
     </cc:Agent>
    </dc:creator>
   </cc:Work>
  </rdf:RDF>
 </metadata>
 <defs>
  <style type="text/css">*{stroke-linecap:butt;stroke-linejoin:round;}</style>
 </defs>
 <g id="figure_1">
  <g id="patch_1">
   <path d="M 0 345.6 
L 460.8 345.6 
L 460.8 0 
L 0 0 
z
" style="fill:#ffffff;"/>
  </g>
  <g id="patch_2">
   <path d="M 103.104 307.584 
L 369.216 307.584 
L 369.216 41.472 
L 103.104 41.472 
z
" style="fill:#ffffff;"/>
  </g>
  <g id="pane3d_1">
   <g id="patch_3">
    <path d="M 123.197291 241.969309 
L 211.076164 168.307495 
L 209.854564 62.073991 
L 117.770234 129.272941 
" style="fill:#f2f2f2;opacity:0.5;stroke:#f2f2f2;stroke-linejoin:miter;"/>
   </g>
  </g>
  <g id="pane3d_2">
   <g id="patch_4">
    <path d="M 211.076164 168.307495 
L 352.090401 209.294766 
L 357.122702 99.402171 
L 209.854564 62.073991 
" style="fill:#e6e6e6;opacity:0.5;stroke:#e6e6e6;stroke-linejoin:miter;"/>
   </g>
  </g>
  <g id="pane3d_3">
   <g id="patch_5">
    <path d="M 123.197291 241.969309 
L 272.679269 290.790123 
L 352.090401 209.294766 
L 211.076164 168.307495 
" style="fill:#ececec;opacity:0.5;stroke:#ececec;stroke-linejoin:miter;"/>
   </g>
  </g>
  <g id="axis3d_1">
   <g id="line2d_1">
    <path d="M 123.197291 241.969309 
L 272.679269 290.790123 
" style="fill:none;stroke:#000000;stroke-linecap:square;stroke-width:0.8;"/>
   </g>
   <g id="Line3DCollection_1">
    <path d="M 132.250704 244.926154 
L 219.652219 170.800215 
L 218.79322 64.33968 
" style="fill:none;stroke:#b0b0b0;stroke-width:0.8;"/>
    <path d="M 153.16891 251.75804 
L 239.449907 176.554622 
L 239.436729 69.572207 
" style="fill:none;stroke:#b0b0b0;stroke-width:0.8;"/>
    <path d="M 174.405527 258.693919 
L 259.523908 182.389341 
L 260.380846 74.88093 
" style="fill:none;stroke:#b0b0b0;stroke-width:0.8;"/>
    <path d="M 195.967881 265.736184 
L 279.880048 188.306068 
L 281.632185 80.267526 
" style="fill:none;stroke:#b0b0b0;stroke-width:0.8;"/>
    <path d="M 217.863526 272.887301 
L 300.524317 194.306542 
L 303.197557 85.733719 
" style="fill:none;stroke:#b0b0b0;stroke-width:0.8;"/>
    <path d="M 240.100249 280.149815 
L 321.462876 200.392554 
L 325.083974 91.281287 
" style="fill:none;stroke:#b0b0b0;stroke-width:0.8;"/>
    <path d="M 262.686081 287.526347 
L 342.702063 206.565947 
L 347.298659 96.912062 
" style="fill:none;stroke:#b0b0b0;stroke-width:0.8;"/>
   </g>
   <g id="xtick_1">
    <g id="line2d_2">
     <path d="M 133.011792 244.280669 
L 130.725263 246.219892 
" style="fill:none;stroke:#000000;stroke-linecap:square;stroke-width:0.8;"/>
    </g>
    <g id="text_1">
     <!-- −6 -->
     <g transform="translate(117.350561 268.235303)scale(0.1 -0.1)">
      <defs>
       <path d="M 10.59375 35.5 
L 73.1875 35.5 
L 73.1875 27.203125 
L 10.59375 27.203125 
z
" id="DejaVuSans-8722"/>
       <path d="M 33.015625 40.375 
Q 26.375 40.375 22.484375 35.828125 
Q 18.609375 31.296875 18.609375 23.390625 
Q 18.609375 15.53125 22.484375 10.953125 
Q 26.375 6.390625 33.015625 6.390625 
Q 39.65625 6.390625 43.53125 10.953125 
Q 47.40625 15.53125 47.40625 23.390625 
Q 47.40625 31.296875 43.53125 35.828125 
Q 39.65625 40.375 33.015625 40.375 
z
M 52.59375 71.296875 
L 52.59375 62.3125 
Q 48.875 64.0625 45.09375 64.984375 
Q 41.3125 65.921875 37.59375 65.921875 
Q 27.828125 65.921875 22.671875 59.328125 
Q 17.53125 52.734375 16.796875 39.40625 
Q 19.671875 43.65625 24.015625 45.921875 
Q 28.375 48.1875 33.59375 48.1875 
Q 44.578125 48.1875 50.953125 41.515625 
Q 57.328125 34.859375 57.328125 23.390625 
Q 57.328125 12.15625 50.6875 5.359375 
Q 44.046875 -1.421875 33.015625 -1.421875 
Q 20.359375 -1.421875 13.671875 8.265625 
Q 6.984375 17.96875 6.984375 36.375 
Q 6.984375 53.65625 15.1875 63.9375 
Q 23.390625 74.21875 37.203125 74.21875 
Q 40.921875 74.21875 44.703125 73.484375 
Q 48.484375 72.75 52.59375 71.296875 
z
" id="DejaVuSans-54"/>
      </defs>
      <use xlink:href="#DejaVuSans-8722"/>
      <use x="83.789062" xlink:href="#DejaVuSans-54"/>
     </g>
    </g>
   </g>
   <g id="xtick_2">
    <g id="line2d_3">
     <path d="M 153.920701 251.102771 
L 151.662077 253.071411 
" style="fill:none;stroke:#000000;stroke-linecap:square;stroke-width:0.8;"/>
    </g>
    <g id="text_2">
     <!-- −4 -->
     <g transform="translate(138.290031 275.211891)scale(0.1 -0.1)">
      <defs>
       <path d="M 37.796875 64.3125 
L 12.890625 25.390625 
L 37.796875 25.390625 
z
M 35.203125 72.90625 
L 47.609375 72.90625 
L 47.609375 25.390625 
L 58.015625 25.390625 
L 58.015625 17.1875 
L 47.609375 17.1875 
L 47.609375 0 
L 37.796875 0 
L 37.796875 17.1875 
L 4.890625 17.1875 
L 4.890625 26.703125 
z
" id="DejaVuSans-52"/>
      </defs>
      <use xlink:href="#DejaVuSans-8722"/>
      <use x="83.789062" xlink:href="#DejaVuSans-52"/>
     </g>
    </g>
   </g>
   <g id="xtick_3">
    <g id="line2d_4">
     <path d="M 175.147649 258.028641 
L 172.918048 260.027372 
" style="fill:none;stroke:#000000;stroke-linecap:square;stroke-width:0.8;"/>
    </g>
    <g id="text_3">
     <!-- −2 -->
     <g transform="translate(159.54944 282.295075)scale(0.1 -0.1)">
      <defs>
       <path d="M 19.1875 8.296875 
L 53.609375 8.296875 
L 53.609375 0 
L 7.328125 0 
L 7.328125 8.296875 
Q 12.9375 14.109375 22.625 23.890625 
Q 32.328125 33.6875 34.8125 36.53125 
Q 39.546875 41.84375 41.421875 45.53125 
Q 43.3125 49.21875 43.3125 52.78125 
Q 43.3125 58.59375 39.234375 62.25 
Q 35.15625 65.921875 28.609375 65.921875 
Q 23.96875 65.921875 18.8125 64.3125 
Q 13.671875 62.703125 7.8125 59.421875 
L 7.8125 69.390625 
Q 13.765625 71.78125 18.9375 73 
Q 24.125 74.21875 28.421875 74.21875 
Q 39.75 74.21875 46.484375 68.546875 
Q 53.21875 62.890625 53.21875 53.421875 
Q 53.21875 48.921875 51.53125 44.890625 
Q 49.859375 40.875 45.40625 35.40625 
Q 44.1875 33.984375 37.640625 27.21875 
Q 31.109375 20.453125 19.1875 8.296875 
z
" id="DejaVuSans-50"/>
      </defs>
      <use xlink:href="#DejaVuSans-8722"/>
      <use x="83.789062" xlink:href="#DejaVuSans-50"/>
     </g>
    </g>
   </g>
   <g id="xtick_4">
    <g id="line2d_5">
     <path d="M 196.69995 265.060666 
L 194.500531 267.090184 
" style="fill:none;stroke:#000000;stroke-linecap:square;stroke-width:0.8;"/>
    </g>
    <g id="text_4">
     <!-- 0 -->
     <g transform="translate(185.32602 289.487318)scale(0.1 -0.1)">
      <defs>
       <path d="M 31.78125 66.40625 
Q 24.171875 66.40625 20.328125 58.90625 
Q 16.5 51.421875 16.5 36.375 
Q 16.5 21.390625 20.328125 13.890625 
Q 24.171875 6.390625 31.78125 6.390625 
Q 39.453125 6.390625 43.28125 13.890625 
Q 47.125 21.390625 47.125 36.375 
Q 47.125 51.421875 43.28125 58.90625 
Q 39.453125 66.40625 31.78125 66.40625 
z
M 31.78125 74.21875 
Q 44.046875 74.21875 50.515625 64.515625 
Q 56.984375 54.828125 56.984375 36.375 
Q 56.984375 17.96875 50.515625 8.265625 
Q 44.046875 -1.421875 31.78125 -1.421875 
Q 19.53125 -1.421875 13.0625 8.265625 
Q 6.59375 17.96875 6.59375 36.375 
Q 6.59375 54.828125 13.0625 64.515625 
Q 19.53125 74.21875 31.78125 74.21875 
z
" id="DejaVuSans-48"/>
      </defs>
      <use xlink:href="#DejaVuSans-48"/>
     </g>
    </g>
   </g>
   <g id="xtick_5">
    <g id="line2d_6">
     <path d="M 218.585139 272.201306 
L 216.417107 274.262327 
" style="fill:none;stroke:#000000;stroke-linecap:square;stroke-width:0.8;"/>
    </g>
    <g id="text_5">
     <!-- 2 -->
     <g transform="translate(207.247702 296.791158)scale(0.1 -0.1)">
      <use xlink:href="#DejaVuSans-50"/>
     </g>
    </g>
   </g>
   <g id="xtick_6">
    <g id="line2d_7">
     <path d="M 240.810991 279.453096 
L 238.675594 281.546359 
" style="fill:none;stroke:#000000;stroke-linecap:square;stroke-width:0.8;"/>
    </g>
    <g id="text_6">
     <!-- 4 -->
     <g transform="translate(229.512186 304.209212)scale(0.1 -0.1)">
      <use xlink:href="#DejaVuSans-52"/>
     </g>
    </g>
   </g>
   <g id="xtick_7">
    <g id="line2d_8">
     <path d="M 263.385522 286.818651 
L 261.284057 288.94492 
" style="fill:none;stroke:#000000;stroke-linecap:square;stroke-width:0.8;"/>
    </g>
    <g id="text_7">
     <!-- 6 -->
     <g transform="translate(252.127577 311.744181)scale(0.1 -0.1)">
      <use xlink:href="#DejaVuSans-54"/>
     </g>
    </g>
   </g>
  </g>
  <g id="axis3d_2">
   <g id="line2d_9">
    <path d="M 352.090401 209.294766 
L 272.679269 290.790123 
" style="fill:none;stroke:#000000;stroke-linecap:square;stroke-width:0.8;"/>
   </g>
   <g id="Line3DCollection_2">
    <path d="M 124.138093 124.625967 
L 129.252888 236.893387 
L 278.173905 285.151275 
" style="fill:none;stroke:#b0b0b0;stroke-width:0.8;"/>
    <path d="M 138.415213 114.207175 
L 142.841443 225.503191 
L 290.491498 272.510394 
" style="fill:none;stroke:#b0b0b0;stroke-width:0.8;"/>
    <path d="M 152.31793 104.061606 
L 156.089021 214.398809 
L 302.483806 260.203335 
" style="fill:none;stroke:#b0b0b0;stroke-width:0.8;"/>
    <path d="M 165.860779 94.178651 
L 169.008295 203.569617 
L 314.163547 248.217048 
" style="fill:none;stroke:#b0b0b0;stroke-width:0.8;"/>
    <path d="M 179.057556 84.548245 
L 181.611321 193.005511 
L 325.542782 236.539153 
" style="fill:none;stroke:#b0b0b0;stroke-width:0.8;"/>
    <path d="M 191.921358 75.160828 
L 193.909571 182.696874 
L 336.632963 225.1579 
" style="fill:none;stroke:#b0b0b0;stroke-width:0.8;"/>
    <path d="M 204.46463 66.007319 
L 205.913967 172.634551 
L 347.444965 214.062126 
" style="fill:none;stroke:#b0b0b0;stroke-width:0.8;"/>
   </g>
   <g id="xtick_8">
    <g id="line2d_10">
     <path d="M 276.918943 284.744604 
L 280.687074 285.965668 
" style="fill:none;stroke:#000000;stroke-linecap:square;stroke-width:0.8;"/>
    </g>
    <g id="text_8">
     <!-- −6 -->
     <g transform="translate(283.683445 306.173005)scale(0.1 -0.1)">
      <use xlink:href="#DejaVuSans-8722"/>
      <use x="83.789062" xlink:href="#DejaVuSans-54"/>
     </g>
    </g>
   </g>
   <g id="xtick_9">
    <g id="line2d_11">
     <path d="M 289.24809 272.114531 
L 292.981487 273.303129 
" style="fill:none;stroke:#000000;stroke-linecap:square;stroke-width:0.8;"/>
    </g>
    <g id="text_9">
     <!-- −4 -->
     <g transform="translate(295.83586 293.344936)scale(0.1 -0.1)">
      <use xlink:href="#DejaVuSans-8722"/>
      <use x="83.789062" xlink:href="#DejaVuSans-52"/>
     </g>
    </g>
   </g>
   <g id="xtick_10">
    <g id="line2d_12">
     <path d="M 301.251783 259.817855 
L 304.950954 260.975265 
" style="fill:none;stroke:#000000;stroke-linecap:square;stroke-width:0.8;"/>
    </g>
    <g id="text_10">
     <!-- −2 -->
     <g transform="translate(307.667166 280.85583)scale(0.1 -0.1)">
      <use xlink:href="#DejaVuSans-8722"/>
      <use x="83.789062" xlink:href="#DejaVuSans-50"/>
     </g>
    </g>
   </g>
   <g id="xtick_11">
    <g id="line2d_13">
     <path d="M 312.942742 247.841548 
L 316.608191 248.968982 
" style="fill:none;stroke:#000000;stroke-linecap:square;stroke-width:0.8;"/>
    </g>
    <g id="text_11">
     <!-- 0 -->
     <g transform="translate(323.379766 268.692429)scale(0.1 -0.1)">
      <use xlink:href="#DejaVuSans-48"/>
     </g>
    </g>
   </g>
   <g id="xtick_12">
    <g id="line2d_14">
     <path d="M 324.333029 236.17325 
L 327.965256 237.271857 
" style="fill:none;stroke:#000000;stroke-linecap:square;stroke-width:0.8;"/>
    </g>
    <g id="text_12">
     <!-- 2 -->
     <g transform="translate(334.605888 256.842154)scale(0.1 -0.1)">
      <use xlink:href="#DejaVuSans-50"/>
     </g>
    </g>
   </g>
   <g id="xtick_13">
    <g id="line2d_15">
     <path d="M 335.434098 224.80123 
L 339.033597 225.872102 
" style="fill:none;stroke:#000000;stroke-linecap:square;stroke-width:0.8;"/>
    </g>
    <g id="text_13">
     <!-- 4 -->
     <g transform="translate(345.546685 245.293067)scale(0.1 -0.1)">
      <use xlink:href="#DejaVuSans-52"/>
     </g>
    </g>
   </g>
   <g id="xtick_14">
    <g id="line2d_16">
     <path d="M 346.256825 213.714346 
L 349.824086 214.758519 
" style="fill:none;stroke:#000000;stroke-linecap:square;stroke-width:0.8;"/>
    </g>
    <g id="text_14">
     <!-- 6 -->
     <g transform="translate(356.212898 234.033832)scale(0.1 -0.1)">
      <use xlink:href="#DejaVuSans-54"/>
     </g>
    </g>
   </g>
  </g>
  <g id="axis3d_3">
   <g id="line2d_17">
    <path d="M 352.090401 209.294766 
L 357.122702 99.402171 
" style="fill:none;stroke:#000000;stroke-linecap:square;stroke-width:0.8;"/>
   </g>
   <g id="Line3DCollection_3">
    <path d="M 352.186814 207.189346 
L 211.052711 166.26796 
L 123.093487 239.813739 
" style="fill:none;stroke:#b0b0b0;stroke-width:0.8;"/>
    <path d="M 352.96412 190.214976 
L 210.863697 149.830805 
L 122.256346 222.42997 
" style="fill:none;stroke:#b0b0b0;stroke-width:0.8;"/>
    <path d="M 353.752248 173.004263 
L 210.672177 133.175735 
L 121.407104 204.794915 
" style="fill:none;stroke:#b0b0b0;stroke-width:0.8;"/>
    <path d="M 354.551427 155.552235 
L 210.478101 116.298387 
L 120.545497 186.903085 
" style="fill:none;stroke:#b0b0b0;stroke-width:0.8;"/>
    <path d="M 355.361891 137.853783 
L 210.281418 99.194283 
L 119.671253 168.748832 
" style="fill:none;stroke:#b0b0b0;stroke-width:0.8;"/>
    <path d="M 356.183879 119.903649 
L 210.082074 81.858821 
L 118.784091 150.32634 
" style="fill:none;stroke:#b0b0b0;stroke-width:0.8;"/>
    <path d="M 357.017641 101.696426 
L 209.880015 64.287274 
L 117.883723 131.629618 
" style="fill:none;stroke:#b0b0b0;stroke-width:0.8;"/>
   </g>
   <g id="xtick_15">
    <g id="line2d_18">
     <path d="M 351.002262 206.845889 
L 354.558736 207.877077 
" style="fill:none;stroke:#000000;stroke-linecap:square;stroke-width:0.8;"/>
    </g>
    <g id="text_15">
     <!-- −6 -->
     <g transform="translate(363.079685 212.186875)scale(0.1 -0.1)">
      <use xlink:href="#DejaVuSans-8722"/>
      <use x="83.789062" xlink:href="#DejaVuSans-54"/>
     </g>
    </g>
   </g>
   <g id="xtick_16">
    <g id="line2d_19">
     <path d="M 351.771072 189.875918 
L 355.353075 190.893904 
" style="fill:none;stroke:#000000;stroke-linecap:square;stroke-width:0.8;"/>
    </g>
    <g id="text_16">
     <!-- −4 -->
     <g transform="translate(363.980531 195.245865)scale(0.1 -0.1)">
      <use xlink:href="#DejaVuSans-8722"/>
      <use x="83.789062" xlink:href="#DejaVuSans-52"/>
     </g>
    </g>
   </g>
   <g id="xtick_17">
    <g id="line2d_20">
     <path d="M 352.550581 172.66976 
L 356.158482 173.674075 
" style="fill:none;stroke:#000000;stroke-linecap:square;stroke-width:0.8;"/>
    </g>
    <g id="text_17">
     <!-- −2 -->
     <g transform="translate(364.893882 178.069694)scale(0.1 -0.1)">
      <use xlink:href="#DejaVuSans-8722"/>
      <use x="83.789062" xlink:href="#DejaVuSans-50"/>
     </g>
    </g>
   </g>
   <g id="xtick_18">
    <g id="line2d_21">
     <path d="M 353.341016 155.22245 
L 356.975191 156.212608 
" style="fill:none;stroke:#000000;stroke-linecap:square;stroke-width:0.8;"/>
    </g>
    <g id="text_18">
     <!-- 0 -->
     <g transform="translate(370.009844 160.653431)scale(0.1 -0.1)">
      <use xlink:href="#DejaVuSans-48"/>
     </g>
    </g>
   </g>
   <g id="xtick_19">
    <g id="line2d_22">
     <path d="M 354.142607 137.528881 
L 357.803442 138.504381 
" style="fill:none;stroke:#000000;stroke-linecap:square;stroke-width:0.8;"/>
    </g>
    <g id="text_19">
     <!-- 2 -->
     <g transform="translate(370.948998 142.992007)scale(0.1 -0.1)">
      <use xlink:href="#DejaVuSans-50"/>
     </g>
    </g>
   </g>
   <g id="xtick_20">
    <g id="line2d_23">
     <path d="M 354.955593 119.583803 
L 358.643481 120.544127 
" style="fill:none;stroke:#000000;stroke-linecap:square;stroke-width:0.8;"/>
    </g>
    <g id="text_20">
     <!-- 4 -->
     <g transform="translate(371.901467 125.080207)scale(0.1 -0.1)">
      <use xlink:href="#DejaVuSans-52"/>
     </g>
    </g>
   </g>
   <g id="xtick_21">
    <g id="line2d_24">
     <path d="M 355.780217 101.381816 
L 359.495561 102.326427 
" style="fill:none;stroke:#000000;stroke-linecap:square;stroke-width:0.8;"/>
    </g>
    <g id="text_21">
     <!-- 6 -->
     <g transform="translate(372.867534 106.912671)scale(0.1 -0.1)">
      <use xlink:href="#DejaVuSans-54"/>
     </g>
    </g>
   </g>
  </g>
  <g id="axes_1">
   <g id="line2d_25">
    <path clip-path="url(#paada82efd8)" d="M 176.46659 152.661782 
L 305.958438 190.042858 
" style="fill:none;stroke:#000000;stroke-linecap:square;stroke-width:1.5;"/>
   </g>
   <g id="Poly3DCollection_1">
    <path clip-path="url(#paada82efd8)" d="M 138.184749 237.664644 
L 142.475523 239.051788 
L 146.779585 240.443228 
L 151.096996 241.838983 
L 155.42782 243.239074 
L 159.772118 244.643522 
L 164.129954 246.052346 
L 168.501391 247.465567 
L 172.886493 248.883205 
L 177.285324 250.305282 
L 181.697949 251.731818 
L 186.124431 253.162835 
L 190.564838 254.598353 
L 195.019235 256.038393 
L 199.487687 257.482978 
L 203.970262 258.932128 
L 208.467027 260.385866 
L 212.978049 261.844212 
L 217.503396 263.30719 
L 222.043136 264.774821 
L 226.597338 266.247127 
L 231.166072 267.724131 
L 235.749407 269.205856 
L 240.347413 270.692323 
L 244.96016 272.183556 
L 249.58772 273.679578 
L 254.230165 275.180411 
L 258.887565 276.68608 
L 263.559994 278.196607 
L 268.247525 279.712017 
L 270.892445 273.422915 
L 273.530719 267.149617 
L 276.162372 260.892062 
L 278.787428 254.650192 
L 281.405914 248.423947 
L 284.017852 242.213269 
L 286.623268 236.0181 
L 289.222187 229.838382 
L 291.814632 223.674056 
L 294.400627 217.525065 
L 296.980198 211.391353 
L 299.553366 205.272862 
L 302.120157 199.169536 
L 304.680594 193.081319 
L 307.234701 187.008154 
L 309.782501 180.949985 
L 312.324017 174.906758 
L 314.859273 168.878417 
L 317.388291 162.864907 
L 319.911095 156.866174 
L 322.427708 150.882162 
L 324.938152 144.912818 
L 327.44245 138.958089 
L 329.940624 133.017919 
L 332.432698 127.092257 
L 334.918693 121.181049 
L 337.398631 115.284242 
L 339.872535 109.401784 
L 342.340426 103.533622 
L 337.702491 102.345777 
L 333.078972 101.161624 
L 328.469803 99.981146 
L 323.874917 98.804327 
L 319.294248 97.631149 
L 314.727729 96.461594 
L 310.175295 95.295648 
L 305.636882 94.133291 
L 301.112424 92.97451 
L 296.601857 91.819286 
L 292.105117 90.667603 
L 287.622142 89.519445 
L 283.152867 88.374797 
L 278.69723 87.233641 
L 274.255169 86.095962 
L 269.826621 84.961745 
L 265.411526 83.830972 
L 261.009822 82.70363 
L 256.621448 81.579701 
L 252.246343 80.459171 
L 247.884449 79.342024 
L 243.535704 78.228245 
L 239.200049 77.117819 
L 234.877426 76.01073 
L 230.567776 74.906963 
L 226.27104 73.806505 
L 221.987161 72.709339 
L 217.716081 71.615451 
L 213.457742 70.524826 
L 210.946715 76.100434 
L 208.429835 81.689036 
L 205.907083 87.290678 
L 203.378437 92.905405 
L 200.843878 98.533265 
L 198.303383 104.174302 
L 195.756933 109.828564 
L 193.204507 115.496096 
L 190.646082 121.176946 
L 188.081639 126.87116 
L 185.511156 132.578786 
L 182.934611 138.299872 
L 180.351984 144.034464 
L 177.763252 149.78261 
L 175.168394 155.54436 
L 172.567387 161.31976 
L 169.960211 167.108861 
L 167.346844 172.91171 
L 164.727262 178.728356 
L 162.101444 184.55885 
L 159.469368 190.403239 
L 156.831012 196.261575 
L 154.186352 202.133907 
L 151.535366 208.020285 
L 148.878031 213.92076 
L 146.214325 219.835382 
L 143.544225 225.764203 
L 140.867707 231.707273 
z
" style="fill:#acac00;fill-opacity:0.3;"/>
   </g>
   <g id="Poly3DCollection_2">
    <path clip-path="url(#paada82efd8)" d="M 135.971779 184.836355 
L 140.352689 186.170312 
L 144.747463 187.508489 
L 149.156166 188.850908 
L 153.578865 190.197589 
L 158.015627 191.548552 
L 162.466519 192.903817 
L 166.931609 194.263405 
L 171.410963 195.627337 
L 175.904652 196.995634 
L 180.412744 198.368316 
L 184.935308 199.745405 
L 189.472414 201.126922 
L 194.024133 202.512888 
L 198.590534 203.903325 
L 203.17169 205.298255 
L 207.767672 206.697699 
L 212.378551 208.101679 
L 217.004401 209.510218 
L 221.645295 210.923337 
L 226.301305 212.341059 
L 230.972506 213.763407 
L 235.658973 215.190403 
L 240.36078 216.62207 
L 245.078004 218.058432 
L 249.810718 219.49951 
L 254.559002 220.945329 
L 259.32293 222.395911 
L 264.102581 223.851281 
L 268.898032 225.311462 
L 271.552423 222.785406 
L 274.191703 220.273731 
L 276.815999 217.776315 
L 279.425438 215.293036 
L 282.020148 212.823776 
L 284.600252 210.368416 
L 287.165872 207.926838 
L 289.717131 205.498928 
L 292.25415 203.08457 
L 294.777046 200.683651 
L 297.285937 198.29606 
L 299.78094 195.921686 
L 302.26217 193.560419 
L 304.72974 191.212151 
L 307.183763 188.876775 
L 309.62435 186.554186 
L 312.051611 184.244278 
L 314.465656 181.946948 
L 316.866591 179.662094 
L 319.254523 177.389614 
L 321.629558 175.129407 
L 323.9918 172.881376 
L 326.341351 170.645421 
L 328.678314 168.421445 
L 331.002791 166.209353 
L 333.314879 164.00905 
L 335.614679 161.820441 
L 337.902288 159.643434 
L 340.177802 157.477936 
L 335.640788 156.23289 
L 331.11758 154.991634 
L 326.608116 153.754148 
L 322.112333 152.520418 
L 317.630169 151.290424 
L 313.161562 150.064151 
L 308.70645 148.841581 
L 304.264774 147.622698 
L 299.836471 146.407485 
L 295.421482 145.195926 
L 291.019747 143.988003 
L 286.631206 142.783702 
L 282.255799 141.583005 
L 277.893469 140.385896 
L 273.544156 139.192359 
L 269.207803 138.002379 
L 264.884351 136.815939 
L 260.573743 135.633024 
L 256.275922 134.453618 
L 251.990831 133.277705 
L 247.718413 132.10527 
L 243.458613 130.936297 
L 239.211374 129.770772 
L 234.976642 128.608678 
L 230.75436 127.450002 
L 226.544475 126.294727 
L 222.346931 125.142839 
L 218.161674 123.994322 
L 213.988651 122.849163 
L 211.48958 124.834764 
L 208.977792 126.83047 
L 206.453191 128.836356 
L 203.915676 130.852502 
L 201.365151 132.878985 
L 198.801513 134.915887 
L 196.224662 136.963287 
L 193.634495 139.021268 
L 191.030909 141.08991 
L 188.413799 143.169297 
L 185.78306 145.259513 
L 183.138585 147.360643 
L 180.480265 149.472773 
L 177.807993 151.595989 
L 175.121657 153.730379 
L 172.421147 155.87603 
L 169.70635 158.033034 
L 166.977152 160.201479 
L 164.233439 162.381457 
L 161.475094 164.573061 
L 158.702 166.776383 
L 155.914039 168.991518 
L 153.11109 171.218561 
L 150.293032 173.457609 
L 147.459743 175.708758 
L 144.611099 177.972107 
L 141.746975 180.247756 
L 138.867245 182.535805 
z
" style="fill:#930093;fill-opacity:0.3;"/>
   </g>
   <g id="Poly3DCollection_3">
    <path clip-path="url(#paada82efd8)" d="M 133.660232 129.65482 
L 138.135141 130.929415 
L 142.624527 132.208133 
L 147.128461 133.490996 
L 151.647014 134.778022 
L 156.180257 136.069233 
L 160.728262 137.364648 
L 165.291101 138.664288 
L 169.868847 139.968175 
L 174.461573 141.276328 
L 179.069352 142.588769 
L 183.692259 143.905518 
L 188.330368 145.226598 
L 192.983755 146.552029 
L 197.652495 147.881834 
L 202.336664 149.216033 
L 207.036339 150.554648 
L 211.751596 151.897702 
L 216.482514 153.245217 
L 221.229171 154.597214 
L 225.991645 155.953717 
L 230.770016 157.314748 
L 235.564363 158.680329 
L 240.374767 160.050484 
L 245.201308 161.425235 
L 250.044067 162.804605 
L 254.903127 164.188619 
L 259.77857 165.577299 
L 264.670479 166.970668 
L 269.578938 168.368752 
L 272.240986 169.954742 
L 274.879075 171.526457 
L 277.493525 173.084089 
L 280.084653 174.627826 
L 282.652771 176.157854 
L 285.198182 177.674354 
L 287.721187 179.177505 
L 290.222081 180.667483 
L 292.701152 182.144459 
L 295.158686 183.608603 
L 297.594961 185.060083 
L 300.010252 186.49906 
L 302.40483 187.925697 
L 304.778959 189.340151 
L 307.132901 190.742578 
L 309.466912 192.13313 
L 311.781243 193.511958 
L 314.076143 194.879209 
L 316.351856 196.235028 
L 318.60862 197.579559 
L 320.846672 198.912941 
L 323.066244 200.235313 
L 325.267563 201.546811 
L 327.450854 202.847567 
L 329.616337 204.137714 
L 331.764229 205.417381 
L 333.894744 206.686695 
L 336.008091 207.945781 
L 338.104478 209.194763 
L 333.664091 207.898199 
L 329.236937 206.605501 
L 324.822959 205.316649 
L 320.422097 204.031627 
L 316.034294 202.750418 
L 311.659491 201.473005 
L 307.29763 200.199371 
L 302.948654 198.9295 
L 298.612506 197.663374 
L 294.28913 196.400977 
L 289.978469 195.142293 
L 285.680467 193.887306 
L 281.395068 192.635998 
L 277.122217 191.388355 
L 272.86186 190.144359 
L 268.61394 188.903995 
L 264.378405 187.667247 
L 260.155199 186.4341 
L 255.944269 185.204537 
L 251.745562 183.978543 
L 247.559025 182.756102 
L 243.384604 181.5372 
L 239.222247 180.32182 
L 235.071902 179.109947 
L 230.933517 177.901566 
L 226.807041 176.696663 
L 222.692421 175.495222 
L 218.589607 174.297228 
L 214.498549 173.102667 
L 212.012365 171.766428 
L 209.506909 170.41983 
L 206.981957 169.062754 
L 204.437278 167.695076 
L 201.872642 166.316671 
L 199.287813 164.927413 
L 196.682551 163.527173 
L 194.056613 162.115821 
L 191.409752 160.693223 
L 188.741716 159.259245 
L 186.052252 157.813749 
L 183.341099 156.356597 
L 180.607994 154.887646 
L 177.852669 153.406752 
L 175.074853 151.91377 
L 172.274269 150.408552 
L 169.450635 148.890944 
L 166.603666 147.360796 
L 163.733072 145.817949 
L 160.838557 144.262246 
L 157.919821 142.693524 
L 154.976559 141.111621 
L 152.00846 139.516369 
L 149.015209 137.907598 
L 145.996484 136.285136 
L 142.951959 134.648807 
L 139.881301 132.998433 
L 136.784174 131.333832 
z
" style="fill:#000091;fill-opacity:0.3;"/>
   </g>
  </g>
 </g>
 <defs>
  <clipPath id="paada82efd8">
   <rect height="266.112" width="266.112" x="103.104" y="41.472"/>
  </clipPath>
 </defs>
</svg>
